<svg xmlns="http://www.w3.org/2000/svg" width="20" height="20" fill="none"><path fill="#CEF240" d="M12.71 8.908c-.823-.984-1.234-1.476-1.706-1.4-.473.075-.694.669-1.136 1.855l-.114.307c-.126.337-.189.506-.311.63s-.29.19-.626.321l-.305.12c-1.181.463-1.772.694-1.84 1.167-.067.472.434.873 1.435 1.676l.259.207c.284.228.426.342.509.498.082.156.095.337.121.697l.024.329c.092 1.27.138 1.904.57 2.12.43.217.96-.128 2.021-.819l.275-.178c.301-.197.452-.295.625-.323.173-.027.35.018.701.11l.32.083c1.238.322 1.857.483 2.191.145.334-.34.161-.954-.184-2.183l-.09-.318c-.098-.35-.147-.524-.122-.697s.12-.325.312-.63l.174-.277c.672-1.07 1.009-1.606.784-2.032s-.862-.46-2.136-.529l-.33-.018c-.361-.02-.542-.03-.7-.108-.158-.08-.275-.22-.509-.499l-.212-.255z"/><path fill="#CEF240" d="M8.61 3.543c1.096-1.311 1.644-1.967 2.274-1.866s.925.892 1.514 2.474l.153.41c.167.449.251.673.414.839s.387.253.834.428l.408.16c1.574.617 2.362.925 2.452 1.555s-.578 1.166-1.912 2.235l-.345.277c-.38.304-.57.456-.68.664-.109.208-.126.449-.161.93l-.032.438c-.123 1.693-.185 2.539-.76 2.828-.574.288-1.281-.172-2.695-1.093l-.366-.239c-.402-.261-.603-.392-.834-.43-.23-.036-.465.025-.934.147l-.427.111c-1.651.43-2.477.644-2.922.192-.444-.452-.214-1.271.246-2.91l.12-.424c.13-.466.196-.698.163-.93-.033-.23-.16-.433-.416-.839l-.232-.369C3.575 6.704 3.126 5.99 3.426 5.422s1.149-.614 2.848-.706l.44-.024c.482-.026.723-.039.934-.144.21-.106.366-.293.678-.665z" opacity=".5"/></svg>