<svg xmlns="http://www.w3.org/2000/svg" width="28" height="28" fill="none"><path fill="#CEF240" d="M15.167 17.967c0-2.42 0-3.63.768-4.382.77-.752 2.007-.752 4.482-.752s3.712 0 4.48.752c.77.752.77 1.962.77 4.382v2.566c0 2.42 0 3.63-.77 4.382-.768.752-2.005.752-4.48.752s-3.713 0-4.482-.752c-.768-.752-.768-1.962-.768-4.382z" opacity=".5"/><path fill="#CEF240" d="M2.333 10.033c0 2.42 0 3.63.77 4.382.768.752 2.005.752 4.48.752s3.713 0 4.482-.752c.768-.752.768-1.962.768-4.382V7.467c0-2.42 0-3.63-.768-4.382-.77-.752-2.007-.752-4.482-.752s-3.712 0-4.48.752c-.77.752-.77 1.962-.77 4.382zm12.834-3.616c0-1.269 0-1.903.2-2.403a2.68 2.68 0 0 1 1.42-1.474c.483-.207 1.094-.207 2.317-.207h2.625c1.223 0 1.835 0 2.317.207a2.68 2.68 0 0 1 1.42 1.474c.2.5.2 1.134.2 2.403 0 1.268 0 1.902-.2 2.402a2.68 2.68 0 0 1-1.42 1.474c-.482.207-1.094.207-2.317.207h-2.625c-1.223 0-1.834 0-2.317-.207a2.68 2.68 0 0 1-1.42-1.474c-.2-.5-.2-1.134-.2-2.402"/><path fill="#CEF240" d="M2.333 21.583c0 1.269 0 1.903.2 2.403a2.68 2.68 0 0 0 1.42 1.473c.483.208 1.095.208 2.318.208h2.625c1.223 0 1.834 0 2.317-.208a2.68 2.68 0 0 0 1.42-1.473c.2-.5.2-1.134.2-2.403 0-1.268 0-1.902-.2-2.402a2.68 2.68 0 0 0-1.42-1.474c-.482-.207-1.094-.207-2.317-.207H6.27c-1.223 0-1.835 0-2.317.207a2.68 2.68 0 0 0-1.42 1.473c-.2.5-.2 1.135-.2 2.403" opacity=".5"/></svg>