<svg xmlns="http://www.w3.org/2000/svg" width="20" height="20" fill="none"><path fill="#CEF240" d="M1.667 10c0-3.928 0-5.893 1.22-7.113S6.072 1.667 10 1.667s5.893 0 7.113 1.22 1.22 3.185 1.22 7.113 0 5.893-1.22 7.113-3.185 1.22-7.113 1.22-5.893 0-7.113-1.22-1.22-3.185-1.22-7.113" opacity=".5"/><path fill="#CEF240" fill-rule="evenodd" d="M5.762 9.375H1.667v1.25h6.802a2.71 2.71 0 0 1-2.636 2.083.625.625 0 1 0 0 1.25c1.55 0 2.892-.89 3.542-2.188v6.563h1.25V11.77a3.96 3.96 0 0 0 3.542 2.188.625.625 0 1 0 0-1.25 2.71 2.71 0 0 1-2.636-2.083h6.802v-1.25H14.24c.292-.365.51-.796.63-1.273.448-1.794-1.177-3.42-2.971-2.97a3.3 3.3 0 0 0-1.273.63V1.667h-1.25V5.76a3.3 3.3 0 0 0-1.273-.63c-1.794-.448-3.419 1.177-2.97 2.971.119.477.337.908.63 1.273zm3.613 0H8.331a2.08 2.08 0 0 1-1.987-1.576A1.2 1.2 0 0 1 7.8 6.344a2.08 2.08 0 0 1 1.576 1.987zm2.294 0h-1.044V8.338a2.08 2.08 0 0 1 1.576-1.994A1.2 1.2 0 0 1 13.656 7.8a2.08 2.08 0 0 1-1.987 1.576z" clip-rule="evenodd"/></svg>