<svg xmlns="http://www.w3.org/2000/svg" width="28" height="28" fill="none"><path fill="#CEF240" fill-rule="evenodd" d="m10.187 6.733-3.573 4.834c-1.498 2.028-2.248 3.041-1.835 3.839l.021.04c.438.784 1.732.784 4.32.784 1.44 0 2.159 0 2.61.424l.023.023 4.517-5.332-.023-.022c-.442-.434-.442-1.125-.442-2.507v-.361c0-3.832 0-5.748-1.077-6.078-1.077-.33-2.232 1.232-4.541 4.356z" clip-rule="evenodd"/><path fill="#CEF240" d="M12.195 19.184v.361c0 3.832 0 5.748 1.077 6.078 1.077.33 2.232-1.232 4.541-4.356l3.573-4.834c1.499-2.028 2.248-3.042 1.835-3.839a1.487 1.487 0 0 0-.021-.04c-.438-.784-1.732-.784-4.32-.784-1.44 0-2.158 0-2.61-.425l-4.517 5.332c.442.434.442 1.125.442 2.507z" opacity=".5"/></svg>